<svg
    xmlns="http://www.w3.org/2000/svg"
    xmlns:xlink="http://www.w3.org/1999/xlink"
    version="1.1"
    width="512"
    height="512"
    viewBox="0 0 512 512"
    >
  <!-- Remove to show images -->
  <style type="text/css">
    #light-pattern image { visibility: hidden }
    #dark-pattern image { visibility: hidden }
    #middle-pattern image { visibility: hidden }
  </style>

  <defs>
    <!-- Background patterns -->
    <pattern
        id="light-pattern"
        patternUnits="userSpaceOnUse"
        width="100%"
        height="100%"
        >
      <rect fill="white" width="100%" height="100%" />
      <image
          xlink:href="light.png"
          x="0"
          y="0"
          width="100%"
          height="100%"
          preserveAspectRatio="xMidYMid slice"
          />
    </pattern>
    <pattern
        id="dark-pattern"
        patternUnits="userSpaceOnUse"
        width="100%"
        height="100%"
        >
      <rect fill="black" width="100%" height="100%" />
      <image
          xlink:href="dark.png"
          x="0"
          y="0"
          width="100%"
          height="100%"
          preserveAspectRatio="xMidYMid slice"
          />
    </pattern>
    <pattern
        id="middle-pattern"
        patternUnits="userSpaceOnUse"
        width="100%"
        height="100%"
        >
      <rect fill="gray" width="100%" height="100%" />
      <image
          xlink:href="middle.png"
          x="0"
          y="0"
          width="100%"
          height="100%"
          preserveAspectRatio="xMidYMid slice"
          />
    </pattern>

    <!-- Gradients for arrow -->
    <linearGradient id="light-arrow-gradient-1" x1="0" x2="0" y1="1" y2="0">
      <stop stop-color="white" offset="10%" />
      <stop stop-color="black" offset="100%" />
    </linearGradient>
    <linearGradient id="light-arrow-gradient-2" x1="1" x2="0" y1="0" y2="0">
      <stop stop-color="white" offset="4%" />
      <stop stop-color="black" offset="100%" />
    </linearGradient>
    <linearGradient id="dark-arrow-gradient-1" x1="0" x2="1" y1="0" y2="0">
      <stop stop-color="white" offset="10%" />
      <stop stop-color="black" offset="100%" />
    </linearGradient>
    <linearGradient id="dark-arrow-gradient-2" x1="0" x2="0" y1="0" y2="1">
      <stop stop-color="white" offset="4%" />
      <stop stop-color="black" offset="100%" />
    </linearGradient>

    <!-- Grid definitions -->
    <mask id="light-grid-mask">
      <rect
          x="0%"
          y="0%"
          width="100%"
          height="100%"
          fill="white"
          />
      <rect
          x="8%"
          y="8%"
          width="38%"
          height="38%"
          fill="black"
          />
      <rect
          x="54%"
          y="8%"
          width="38%"
          height="38%"
          fill="black"
          />
      <rect
          x="8%"
          y="54%"
          width="38%"
          height="38%"
          fill="black"
          />
      <circle
          cx="50%"
          cy="50%"
          r="5.656854249%"
          fill="black"
          />
      <rect
          x="54%"
          y="-1%"
          width="47%"
          height="10%"
          fill="black"
          />
      <rect
          x="0%"
          y="75%"
          width="25%"
          height="25%"
          fill="black"
          />
      <rect
          x="6%"
          y="-1.9%"
          width="40%"
          height="10%"
          fill="black"
          />
      <rect
          x="47%"
          y="-50%"
          width="8%"
          height="87%"
          fill="white"
          transform="rotate(-45 256 256) translate(3)"
          />
      <polygon
          fill="black"
          points="-1,513 513,513 513,-1"
          />
    </mask>
    <mask id="dark-grid-mask">
      <rect
          x="0%"
          y="0%"
          width="100%"
          height="100%"
          fill="white"
          />
      <rect
          x="54%"
          y="54%"
          width="38%"
          height="38%"
          fill="black"
          />
      <rect
          x="54%"
          y="8%"
          width="38%"
          height="38%"
          fill="black"
          />
      <rect
          x="8%"
          y="54%"
          width="38%"
          height="38%"
          fill="black"
          />
      <circle
          cx="50%"
          cy="50%"
          r="5.656854249%"
          fill="black"
          />
      <rect
          x="91%"
          y="-1%"
          width="10%"
          height="47%"
          fill="black"
          />
      <rect
          x="0%"
          y="75%"
          width="25%"
          height="25%"
          fill="black"
          />
      <rect
          x="90.9%"
          y="54%"
          width="10%"
          height="40%"
          fill="black"
          />
      <rect
          x="47%"
          y="63%"
          width="8%"
          height="87%"
          fill="white"
          transform="rotate(-45 256 256) translate(3)"
          />
      <polygon
          fill="black"
          points="-1,-1 -1,513 513,-1"
          />
    </mask>

    <!-- Arrow definitions -->
    <mask id="light-arrow-mask">
      <rect
          x="46%"
          y="-50%"
          width="8%"
          height="200%"
          fill="white"
          transform="rotate(45 256 256) translate(82 82)"
          />
      <rect
          x="92%"
          y="17%"
          width="8%"
          height="37%"
          fill="white"
          />
      <rect
          x="92%"
          y="8%"
          width="8%"
          height="10%"
          fill="url(#light-arrow-gradient-1)"
          />
      <rect
          x="50%"
          y="46%"
          width="42%"
          height="8%"
          fill="black"
          />
      <rect
          x="46%"
          y="50%"
          width="8%"
          height="50%"
          fill="black"
          />
      <rect
          x="56%"
          y="46%"
          width="37%"
          height="8%"
          fill="url(#light-arrow-gradient-2)"
          />
    </mask>
    <mask id="dark-arrow-mask">
      <rect
          x="46%"
          y="-50%"
          width="8%"
          height="200%"
          fill="white"
          transform="rotate(45 256 256) translate(-82 -82)"
          />
      <rect
          x="46%"
          y="0%"
          width="37%"
          height="8%"
          fill="white"
          />
      <rect
          x="82%"
          y="0%"
          width="10%"
          height="8%"
          fill="url(#dark-arrow-gradient-1)"
          />
      <rect
          x="0%"
          y="46%"
          width="50%"
          height="8%"
          fill="black"
          />
      <rect
          x="46%"
          y="8%"
          width="8%"
          height="42%"
          fill="black"
          />
      <rect
          x="46%"
          y="7%"
          width="8%"
          height="37%"
          fill="url(#dark-arrow-gradient-2)"
          />
    </mask>
  </defs>

  <!-- Background -->
  <rect
      width="100%"
      height="100%"
      fill="url(#middle-pattern)"
      />

  <!-- Grids -->
  <rect
      width="100%"
      height="100%"
      fill="url(#light-pattern)"
      mask="url(#light-grid-mask)"
      />
  <rect
      width="100%"
      height="100%"
      fill="url(#dark-pattern)"
      mask="url(#dark-grid-mask)"
      />

  <!-- Arrows -->
  <rect
      width="100%"
      height="100%"
      fill="url(#light-pattern)"
      mask="url(#light-arrow-mask)"
      />
  <rect
      width="100%"
      height="100%"
      fill="url(#dark-pattern)"
      mask="url(#dark-arrow-mask)"
      />
</svg>
